<svg width="960" height="1120" viewBox="0 0 960 1120" fill="none" xmlns="http://www.w3.org/2000/svg" role="img" aria-labelledby="title desc">
  <title id="title">Parent and child moment</title>
  <desc id="desc">A warm illustration of a parent and child sitting together as memories become part of a Pravnya record.</desc>
  <rect width="960" height="1120" rx="72" fill="#F8F5ED"/>
  <path d="M110 844C153 766 215 701 297 664C379 626 478 619 565 644C652 669 727 728 773 803C819 879 836 971 820 1061H151C100 1008 81 896 110 844Z" fill="#E8F2EC"/>
  <path d="M164 145C211 106 276 88 336 101C396 115 450 160 474 216C498 271 492 337 460 388C428 439 372 474 311 478C250 482 185 456 149 407C113 357 106 285 125 226C134 196 144 166 164 145Z" fill="#DDECE3"/>
  <path d="M570 124C638 90 726 94 783 143C840 192 866 287 843 361C820 435 748 488 673 492C598 496 521 451 493 380C466 309 502 158 570 124Z" fill="#F7E6C2"/>
  <rect x="154" y="586" width="652" height="300" rx="42" fill="white" stroke="#DCE7E1" stroke-width="4"/>
  <rect x="206" y="638" width="248" height="22" rx="11" fill="#2E7D5B"/>
  <rect x="206" y="688" width="388" height="18" rx="9" fill="#6F8278"/>
  <rect x="206" y="724" width="340" height="18" rx="9" fill="#A7B8AF"/>
  <rect x="206" y="780" width="188" height="48" rx="24" fill="#E7F3EC"/>
  <path d="M240 805H356" stroke="#2E7D5B" stroke-width="14" stroke-linecap="round"/>
  <circle cx="648" cy="738" r="86" fill="#E7F3EC"/>
  <path d="M613 743C635 765 669 765 691 743" stroke="#2E7D5B" stroke-width="14" stroke-linecap="round"/>
  <circle cx="622" cy="711" r="11" fill="#173B2D"/>
  <circle cx="674" cy="711" r="11" fill="#173B2D"/>
  <path d="M346 391C314 386 288 360 283 328C278 297 294 265 322 250C350 235 386 240 408 263C431 286 436 322 420 350C405 378 378 395 346 391Z" fill="#173B2D"/>
  <path d="M258 601C258 522 304 454 371 433C438 412 512 441 548 502C584 562 574 643 523 692C472 741 392 749 332 711C285 681 258 645 258 601Z" fill="#2E7D5B"/>
  <path d="M365 435C358 410 367 382 390 366C413 350 444 350 467 367C490 384 499 414 489 441C475 480 413 478 365 435Z" fill="#173B2D"/>
  <path d="M401 504C414 518 438 519 452 505" stroke="#F8F5ED" stroke-width="13" stroke-linecap="round"/>
  <circle cx="384" cy="473" r="9" fill="#F8F5ED"/>
  <circle cx="466" cy="473" r="9" fill="#F8F5ED"/>
  <path d="M543 544C548 487 591 441 647 430C703 420 759 448 785 499C812 550 800 613 756 651C713 690 647 695 598 663C558 636 539 593 543 544Z" fill="#BBD8C8"/>
  <path d="M636 430C630 408 638 384 657 371C677 357 704 359 721 376C739 393 743 420 731 441C714 469 675 468 636 430Z" fill="#173B2D"/>
  <path d="M663 497C675 509 696 510 709 498" stroke="#173B2D" stroke-width="10" stroke-linecap="round"/>
  <circle cx="650" cy="471" r="7" fill="#173B2D"/>
  <circle cx="722" cy="471" r="7" fill="#173B2D"/>
  <path d="M557 629C590 606 630 600 666 613C701 626 729 656 738 693" stroke="#2E7D5B" stroke-width="18" stroke-linecap="round"/>
  <path d="M382 634C423 609 476 605 522 624" stroke="#F7E6C2" stroke-width="18" stroke-linecap="round"/>
  <circle cx="184" cy="538" r="22" fill="#F39C4A"/>
  <circle cx="792" cy="542" r="18" fill="#2E7D5B"/>
  <circle cx="750" cy="202" r="18" fill="#2E7D5B"/>
  <path d="M207 254L238 274L268 254L238 234L207 254Z" fill="#F39C4A"/>
  <path d="M690 300C711 300 728 317 728 338C728 359 711 376 690 376C669 376 652 359 652 338C652 317 669 300 690 300Z" fill="#FFFFFF" stroke="#D8E4DD" stroke-width="4"/>
  <path d="M676 337L686 347L707 324" stroke="#2E7D5B" stroke-width="8" stroke-linecap="round" stroke-linejoin="round"/>
  <path d="M253 905H708" stroke="#D8E4DD" stroke-width="4" stroke-linecap="round"/>
  <path d="M298 950H662" stroke="#D8E4DD" stroke-width="4" stroke-linecap="round"/>
</svg>
