<?xml version="1.0" encoding="UTF-8"?>
<!DOCTYPE svg PUBLIC "-//W3C//DTD SVG 1.1//EN" "http://www.w3.org/Graphics/SVG/1.1/DTD/svg11.dtd">
<!-- Creator: CorelDRAW -->
<svg xmlns="http://www.w3.org/2000/svg" xml:space="preserve" width="86.6986mm" height="86.6986mm" version="1.1" style="shape-rendering:geometricPrecision; text-rendering:geometricPrecision; image-rendering:optimizeQuality; fill-rule:evenodd; clip-rule:evenodd"
viewBox="0 0 8669.86 8669.86"
 xmlns:xlink="http://www.w3.org/1999/xlink"
 xmlns:xodm="http://www.corel.com/coreldraw/odm/2003">
 <defs>
  <style type="text/css">
   <![CDATA[
    .fil0 {fill:#0E4935}
    .fil1 {fill:#2ACB87}
   ]]>
  </style>
 </defs>
 <g id="Layer_x0020_1">
  <metadata id="CorelCorpID_0Corel-Layer"/>
  <g id="_105554042386176">
   <rect class="fil0" x="-237.07" y="-237.07" width="9144" height="9144"/>
   <g>
    <path class="fil1" d="M3374.32 6120.84c365.35,258.01 17.29,476.16 -151.66,359.64 -107.18,-73.93 -114.3,-231.93 -13.86,-308.85 87.98,-67.38 72.93,-11.08 71.19,-152.78 -0.89,-72.74 4.47,-162.12 -0.12,-232.02 -6.37,-96.88 -170.42,-172.51 -39.69,-328.13 79.73,-94.93 235.62,-94.12 313.26,4.18 75.98,96.2 38.03,257.75 -79.47,302.29 -108.67,41.19 -100.97,-33.43 -99.62,122.75 0.67,77.45 -1.43,155.7 -0.03,232.92zm-945.61 -2760.48c34.51,-7.8 267.23,-256.41 313.32,-300.31 132.98,-126.75 80.22,-328.68 81.75,-524.66 1.83,-233.56 13.9,-101.18 -101.99,-200.8 -65.06,-55.92 -86.52,-144.88 -51.04,-227.58 67.88,-158.33 312.38,-157.25 367.32,13.5 26.49,82.35 1.22,172.12 -68.58,220.43 -79.95,55.31 -51.17,146.92 -49.81,252.28 2.6,198.22 49.64,389.22 -88.54,519.79 -104.06,98.33 -204.25,200.39 -305,302.03 -130.67,131.82 -119.27,312.85 -96.75,505.66 21.54,-5.24 278.19,-263.79 315.25,-301.72 126.89,-129.91 387.45,-27.6 555.03,-60.45 163.48,-223.5 388.3,-177.24 392.72,39.54 4.3,210.58 -228.83,292.4 -391.03,63.43 -438.67,-28.71 -403.19,-51.17 -682.78,221.76 -75.74,73.93 -192.01,150.03 -190.37,262.75 0.97,65.93 -9.87,412.81 7.87,441.08 21.39,-5.51 207.87,-200.58 241.36,-233.1 236.93,-230.14 61.84,-115.85 122.02,-303.97 106.11,-331.76 584.09,6.47 309.96,215.72 -150.71,115.06 -136.27,-77.19 -327.85,120.09 -77.08,79.36 -158.54,155.05 -235.63,234.19 -157.74,161.91 -117.23,111.79 -117.27,350.71 -0.02,68.71 -9.08,429.37 4.47,464.26l553.17 -541.2c102.34,-101.05 -32.47,-126.61 56.5,-260.87 130.86,-197.47 440.31,-37.26 348.63,182.3 -40.88,97.9 -139.36,138.76 -242.14,111.55 -80.44,-21.28 -134.69,73.97 -197.71,135 -123.39,119.45 -240.44,247.84 -365.48,364.43 -228.78,213.35 -157.01,256.7 -156.99,570.68 0.03,243.27 -2.65,487.03 -1.15,730.27 1.69,273.93 229.38,302.23 458.56,262.88l-0.54 -997.26c-51.18,-35.17 -127.66,5.8 -189.76,-120.96 -40.15,-81.96 -19.44,-175.47 46.52,-231.27 149.45,-126.44 371.02,1.45 326.25,194.5 -31.86,137.38 -88.56,33.66 -86.55,226.57 1.74,166.35 -12.14,870.61 3.82,929.75 153.04,29.47 632.15,36.6 725.31,-100.34 61.89,-90.96 36.24,-649.97 36.44,-792.98 0.45,-298.19 -2.76,-445.67 105.48,-727.18 53.07,-138.03 255,-499.58 93.12,-618.94 -279.63,-206.17 -140,-282.36 13.72,-509.63 257.66,-380.91 368.53,-860.11 291.21,-1312.1 -52.39,-306.19 -135.36,-340.69 -249.97,-577.3 445.13,20.82 838.84,385.36 916.7,820.25 52.49,293.11 -24.36,423.26 270.36,596.91 115.72,68.2 196.43,113.06 68.76,244.52 -141.5,145.73 48.6,175.74 39.41,286.73l-103.2 83.42c8.26,25.52 81.18,76.25 105.12,96.31l-4.8 5.72c-20.59,78.01 -120,59.95 -90.7,220.16 17.67,96.48 56.49,167.29 -32.02,247.59 -121.2,109.96 -362.45,85.64 -518.07,110.42 -333.77,53.13 -556.35,404.2 -531.57,719.71 242.93,64.63 755.3,-56.61 987.95,-162.31 246.43,-111.96 482.18,-292.87 655.59,-500.33 833.42,-997.15 554.41,-2557.1 -474.71,-3179.86 -264.77,-160.21 -578.47,-266.99 -890.51,-267.28 -315.12,-0.3 -867.04,-32.87 -1154.9,2.82l3.54 767.76c64.61,57.51 163.99,50.82 160.58,205 -2.19,98.88 -77.95,181.57 -176.66,191.52 -222.93,22.47 -319.13,-278.62 -81.94,-385.34l-6.93 -782.05c-44.88,-13.22 -530.36,-1.02 -577.94,16.56 -183.31,67.82 -137.36,300.29 -137.38,461.29 -0.05,396.07 -12.43,814.74 0.45,1207.95z"/>
    <path class="fil1" d="M3359.77 5489.34c-131.44,47.89 -57.93,242.18 73.88,192.25 121.56,-46.06 60.25,-241.1 -73.88,-192.25z"/>
    <path class="fil1" d="M2970.25 5830.67c60.13,-125.61 -135.22,-207.96 -187.78,-85.71 -55.39,128.84 129.82,206.77 187.78,85.71z"/>
    <path class="fil1" d="M3108.22 2665.5c21.75,125.09 220.67,110.58 203.43,-36.31 -15.96,-136.12 -226.33,-95.54 -203.43,36.31z"/>
    <path class="fil1" d="M3109.57 4768.38c33.56,124.56 228.08,86.42 197.8,-56.11 -26.56,-124.99 -234.72,-80.93 -197.8,56.11z"/>
    <path class="fil1" d="M3430.34 6358.19c52.31,-134.84 -146.84,-191.56 -191.03,-75.88 -48.35,126.6 141.07,204.74 191.03,75.88z"/>
    <path class="fil1" d="M2948.19 2217.45c38.56,-144.75 -152.88,-179.1 -192.96,-68.93 -50.16,137.9 159.33,195.13 192.96,68.93z"/>
    <path class="fil1" d="M3397 3633.83c34.13,119.77 229.29,82.81 197.82,-55.82 -28.8,-126.85 -236.74,-80.76 -197.82,55.82z"/>
    <path class="fil1" d="M2886.23 4125.24c20.12,122.94 212.15,111.65 201.65,-29.02 -9.92,-132.88 -224.39,-109.92 -201.65,29.02z"/>
   </g>
  </g>
 </g>
</svg>
